<svg xmlns="http://www.w3.org/2000/svg" xmlns:xlink="http://www.w3.org/1999/xlink" width="75" height="75" viewBox="0 0 75 75">
  <defs>
    <linearGradient id="linear-gradient" x1="0.5" y1="1" x2="0.5" y2="0.39" gradientUnits="objectBoundingBox">
      <stop offset="0" stop-color="#c2e3ff"/>
      <stop offset="0.255" stop-color="#80d9eb"/>
      <stop offset="1" stop-color="#5aa3e2"/>
    </linearGradient>
  </defs>
  <g id="microphone_w" transform="translate(-2351 -860)">
    <rect id="矩形_3167" data-name="矩形 3167" width="75" height="75" transform="translate(2351 860)" fill="url(#linear-gradient)"/>
    <g id="microphone" transform="translate(2373 877.677)">
      <path id="路径_33360" data-name="路径 33360" d="M15.81,1.25A8.56,8.56,0,0,0,7.25,9.81V20.622a8.56,8.56,0,1,0,17.119,0V9.81A8.56,8.56,0,0,0,15.81,1.25Z" transform="translate(-0.042 -1.25)" fill="#fff"/>
      <path id="路径_33361" data-name="路径 33361" d="M4.6,10.25A1.352,1.352,0,0,1,5.953,11.6v1.8a13.065,13.065,0,1,0,26.13,0V11.6a1.352,1.352,0,1,1,2.7,0v1.8A15.769,15.769,0,0,1,20.369,29.114v3.211a1.352,1.352,0,0,1-2.7,0V29.114A15.769,15.769,0,0,1,3.25,13.4V11.6A1.352,1.352,0,0,1,4.6,10.25Z" transform="translate(-3.25 5.968)" fill="#fff"/>
    </g>
  </g>
</svg>
